<svg xmlns="http://www.w3.org/2000/svg" version="1.1" xmlns:xlink="http://www.w3.org/1999/xlink" xmlns:svgjs="http://svgjs.dev/svgjs" width="1500" height="1500" viewBox="0 0 1500 1500"><g transform="matrix(1,0,0,1,-0.323615160350073,-0.3236151603499593)"><svg viewBox="0 0 343 343" data-background-color="#ffffff" preserveAspectRatio="xMidYMid meet" height="1500" width="1500" xmlns="http://www.w3.org/2000/svg" xmlns:xlink="http://www.w3.org/1999/xlink"><g id="tight-bounds" transform="matrix(1,0,0,1,0.0740000000000407,0.07400000000001228)"><svg viewBox="0 0 342.85155851775386 342.85155851775386" height="342.85155851775386" width="342.85155851775386"><g><svg></svg></g><g><svg viewBox="0 0 342.85155851775386 342.85155851775386" height="342.85155851775386" width="342.85155851775386"><g><path d="M0 171.426c0-94.676 76.75-171.426 171.426-171.426 94.676 0 171.426 76.75 171.426 171.426 0 94.676-76.75 171.426-171.426 171.426-94.676 0-171.426-76.75-171.426-171.426zM171.426 339.683c92.926 0 168.257-75.331 168.257-168.257 0-92.926-75.331-168.257-168.257-168.257-92.926 0-168.257 75.331-168.257 168.257 0 92.926 75.331 168.257 168.257 168.257z" data-fill-palette-color="tertiary" fill="#471aa0" stroke="transparent"></path><ellipse rx="164.56874808852186" ry="164.56874808852186" cx="171.42577925887693" cy="171.42577925887693" fill="#471aa0" stroke="transparent" stroke-width="0" fill-opacity="1" data-fill-palette-color="tertiary"></ellipse></g><g transform="matrix(1,0,0,1,64.84655864529837,90.14517226066458)"><svg viewBox="0 0 213.1584412271571 162.5612139964247" height="162.5612139964247" width="213.1584412271571"><g><svg viewBox="0 0 213.1584412271571 162.5612139964247" height="162.5612139964247" width="213.1584412271571"><g><svg viewBox="0 0 213.1584412271571 162.5612139964247" height="162.5612139964247" width="213.1584412271571"><g transform="matrix(1,0,0,1,0,97.79779090422085)"><svg viewBox="0 0 213.1584412271571 64.76342309220385" height="64.76342309220385" width="213.1584412271571"><g id="textblocktransform"><svg viewBox="0 0 213.1584412271571 64.76342309220385" height="64.76342309220385" width="213.1584412271571" id="textblock"><g><svg viewBox="0 0 213.1584412271571 35.13588925089847" height="35.13588925089847" width="213.1584412271571"><g transform="matrix(1,0,0,1,0,0)"><svg width="213.1584412271571" viewBox="2.55 -37.5 299.67433593749996 49.4" height="35.13588925089847" data-palette-color="#ffffff"><g transform="matrix(1,0,0,1,0,0)"><g><svg width="17.062890624999998" viewBox="1.78 -36.36 74.21 36.36" height="8.36" data-palette-color="#ffffff" id="scriptelement" x="285.1614453125" y="-8.36"><path d="M12.91-30.02L1.78-30.02 1.78-36.36 31.64-36.36 31.64-30.02 20.51-30.02 20.51 0 12.91 0 12.91-30.02ZM36.57 0L36.57-36.36 46.06-36.36 56.07-11.93 56.5-11.93 66.51-36.36 75.99-36.36 75.99 0 68.53 0 68.53-23.67 68.23-23.67 58.82-0.18 53.74-0.18 44.33-23.76 44.03-23.76 44.03 0 36.57 0Z" opacity="1" transform="matrix(1,0,0,1,0,0)" fill="#ffffff" class="undefined-123" data-fill-palette-color="quaternary" id="tk-123"></path></svg></g></g><path d="M16.25-0.55L16.25-0.55Q18.75-0.55 20.68-1.9 22.6-3.25 22.6-5.98 22.6-8.7 20.53-10.15 18.45-11.6 14.63-12.68 10.8-13.75 9.08-14.55 7.35-15.35 5.8-16.65L5.8-16.65Q2.7-19.25 2.7-24.7L2.7-24.7Q2.7-29.15 5.88-32.35 9.05-35.55 14.55-35.55L14.55-35.55Q17.2-35.55 20.08-34.77 22.95-34 23.65-34 24.35-34 24.9-35L24.9-35 25.45-35 25.8-24.9 25-24.9Q22.6-29.25 19.98-31.88 17.35-34.5 14.28-34.5 11.2-34.5 9.5-33.08 7.8-31.65 7.8-29.28 7.8-26.9 9.83-25.63 11.85-24.35 14.8-23.55 17.75-22.75 18.68-22.45 19.6-22.15 20.98-21.63 22.35-21.1 23.23-20.53 24.1-19.95 25.08-19.07 26.05-18.2 26.6-17.15L26.6-17.15Q27.95-14.75 27.95-11.45L27.95-11.45Q27.95-6.05 24.58-2.78 21.2 0.5 15.7 0.5L15.7 0.5Q12.85 0.5 9.18-0.25 5.5-1 5.1-1L5.1-1Q4.4-1 3.75 0.5L3.75 0.5 3.05 0.5 2.55-11.4 3.4-11.4Q5.6-7.05 9.03-3.8 12.45-0.55 16.25-0.55ZM44.5-23.4L44.5-23.4Q42.3-23.4 41.35-21 40.4-18.6 40.4-13.05L40.4-13.05 40.4-10.45Q40.4-5.5 41.5-3.35 42.6-1.2 45.55-1.2 48.5-1.2 50.25-3.2 52-5.2 52.5-7.75L52.5-7.75 53.4-7.65Q52.45-3.35 49.9-1.45L49.9-1.45Q47.3 0.5 42.75 0.5L42.75 0.5Q36.95 0.5 33.85-2.63 30.75-5.75 30.75-11.78 30.75-17.8 34.27-21.05 37.8-24.3 44.1-24.3L44.1-24.3Q48.55-24.3 50.9-22.58 53.25-20.85 53.25-18.25 53.25-15.65 52.12-14.45 51-13.25 49.02-13.25 47.05-13.25 45.85-14.3 44.65-15.35 44.65-17.4L44.65-17.4Q44.65-18.3 44.9-19.2L44.9-19.2 46.55-19.2Q46.9-20.2 46.9-21L46.9-21Q46.9-23.4 44.5-23.4ZM71.34-22.4L71.34-22.4Q69.5-22.4 68.09-20 66.7-17.6 66.7-14.3L66.7-14.3 66.7-0.9 70.25-0.9 70.25 0 54.65 0 54.65-0.9 57.4-0.9 57.4-22.9 54.65-22.9 54.65-23.8 66.7-23.8 66.7-19Q67.34-21.55 69.2-22.93 71.05-24.3 73.4-24.3 75.75-24.3 77.22-22.98 78.7-21.65 78.7-19.23 78.7-16.8 77.59-15.5 76.5-14.2 74.22-14.2 71.95-14.2 70.87-15.7 69.8-17.2 70.59-19.85L70.59-19.85 72.4-19.85Q73.65-22.4 71.34-22.4ZM90.64-11.75L90.64-11.75 92.09-11.75 92.09-15.6Q92.09-20.35 91.57-21.98 91.04-23.6 89.54-23.6L89.54-23.6Q88.64-23.6 87.92-23.13 87.19-22.65 87.19-21.83 87.19-21 87.49-20.15L87.49-20.15 88.74-20.15Q89.14-19.1 89.14-17.63 89.14-16.15 87.89-15.08 86.64-14 84.74-14L84.74-14Q80.44-14 80.44-18.15L80.44-18.15Q80.44-24.3 90.89-24.3L90.89-24.3Q96.84-24.3 99.12-22.28 101.39-20.25 101.39-14.85L101.39-14.85 101.39-4.7Q101.39-2.1 102.84-2.1L102.84-2.1Q104.54-2.1 104.84-7.25L104.84-7.25 105.59-7.2Q105.39-2.8 103.94-1.15 102.49 0.5 99.19 0.5L99.19 0.5Q93.19 0.5 92.29-3.2L92.29-3.2Q91.64-1.3 90.34-0.4 89.04 0.5 86.54 0.5L86.54 0.5Q79.14 0.5 79.14-5.55L79.14-5.55Q79.14-9.1 81.97-10.43 84.79-11.75 90.64-11.75ZM88.64-5.6Q88.64-3 88.92-2.25 89.19-1.5 89.97-1.5 90.74-1.5 91.42-2.78 92.09-4.05 92.09-6.3L92.09-6.3 92.09-10.95 91.74-10.95Q88.64-10.95 88.64-6.4L88.64-6.4 88.64-5.6ZM123.84-13.45Q123.84-18.6 123.34-20.38 122.84-22.15 121.39-22.15 119.94-22.15 118.79-20.28 117.64-18.4 117.64-15.25L117.64-15.25 117.64-6.1Q117.64-3.95 118.49-2.45 119.34-0.95 120.99-0.95 122.64-0.95 123.24-3.15 123.84-5.35 123.84-10.85L123.84-10.85 123.84-13.45ZM105.69-23.8L117.54-23.8 117.54-19.85Q119.49-24.3 124.44-24.3L124.44-24.3Q128.74-24.3 131.12-21.2 133.49-18.1 133.49-11.8 133.49-5.5 130.92-2.5 128.34 0.5 123.19 0.5L123.19 0.5Q120.79 0.5 119.59-0.1 118.39-0.7 117.64-1.95L117.64-1.95 117.64 11 124.09 11 124.09 11.9 105.59 11.9 105.59 11 108.34 11 108.34-22.9 105.69-22.9 105.69-23.8ZM148.14 0.5Q141.69 0.5 138.46-2.83 135.24-6.15 135.24-12.08 135.24-18 138.86-21.15 142.49-24.3 148.09-24.3L148.09-24.3Q159.44-24.3 158.99-12.9L158.99-12.9 144.89-12.9 144.89-10.95Q144.89-6.05 146.14-3.55 147.39-1.05 150.49-1.05L150.49-1.05Q156.29-1.05 158.09-7.25L158.09-7.25 158.99-7.1Q158.04-3.5 155.56-1.5 153.09 0.5 148.14 0.5L148.14 0.5ZM144.94-16.35L144.94-13.9 150.09-13.9 150.09-16.35Q150.09-20.4 149.61-21.88 149.14-23.35 147.71-23.35 146.29-23.35 145.61-21.78 144.94-20.2 144.94-16.35L144.94-16.35ZM170.33-33.9L170.33-35 188.33-35 188.33-33.9 183.03-33.9 183.03-1.1 184.83-1.1Q189.08-1.1 191.61-3.7 194.13-6.3 196.73-11.7L196.73-11.7 197.78-11.7 196.83 0 170.33 0 170.33-1.1 173.28-1.1 173.28-33.9 170.33-33.9ZM211.58-11.75L211.58-11.75 213.03-11.75 213.03-15.6Q213.03-20.35 212.51-21.98 211.98-23.6 210.48-23.6L210.48-23.6Q209.58-23.6 208.86-23.13 208.13-22.65 208.13-21.83 208.13-21 208.43-20.15L208.43-20.15 209.68-20.15Q210.08-19.1 210.08-17.63 210.08-16.15 208.83-15.08 207.58-14 205.68-14L205.68-14Q201.38-14 201.38-18.15L201.38-18.15Q201.38-24.3 211.83-24.3L211.83-24.3Q217.78-24.3 220.06-22.28 222.33-20.25 222.33-14.85L222.33-14.85 222.33-4.7Q222.33-2.1 223.78-2.1L223.78-2.1Q225.48-2.1 225.78-7.25L225.78-7.25 226.53-7.2Q226.33-2.8 224.88-1.15 223.43 0.5 220.13 0.5L220.13 0.5Q214.13 0.5 213.23-3.2L213.23-3.2Q212.58-1.3 211.28-0.4 209.98 0.5 207.48 0.5L207.48 0.5Q200.08 0.5 200.08-5.55L200.08-5.55Q200.08-9.1 202.91-10.43 205.73-11.75 211.58-11.75ZM209.58-5.6Q209.58-3 209.86-2.25 210.13-1.5 210.91-1.5 211.68-1.5 212.36-2.78 213.03-4.05 213.03-6.3L213.03-6.3 213.03-10.95 212.68-10.95Q209.58-10.95 209.58-6.4L209.58-6.4 209.58-5.6ZM245.28-13.45Q245.28-18.6 244.78-20.38 244.28-22.15 242.83-22.15 241.38-22.15 240.23-20.35 239.08-18.55 239.08-15.4L239.08-15.4 239.08-6.1Q239.08-3.95 239.95-2.45 240.83-0.95 242.45-0.95 244.08-0.95 244.68-3.15 245.28-5.35 245.28-10.85L245.28-10.85 245.28-13.45ZM227.03-37.5L239.08-37.5 239.08-20Q240.98-24.3 245.58-24.3L245.58-24.3Q254.93-24.3 254.93-11.85L254.93-11.85Q254.93-5.5 252.35-2.5 249.78 0.5 244.63 0.5L244.63 0.5Q242.03 0.5 240.65-0.3 239.28-1.1 238.78-2.95L238.78-2.95 238.43 0 227.03 0 227.03-0.9 229.78-0.9 229.78-36.6 227.03-36.6 227.03-37.5ZM258.18 0.5L257.58 0.5 257.58-8.45 258.18-8.45Q259.48-4.1 261.68-2.35 263.88-0.6 267.18-0.6L267.18-0.6Q272.28-0.6 272.28-3.85L272.28-3.85Q272.28-5.25 271.03-5.95L271.03-5.95Q269.08-7.05 266.03-7.65L266.03-7.65Q262.63-8.55 260.33-10.05L260.33-10.05Q257.58-11.85 257.58-15.75 257.58-19.65 259.98-21.98 262.38-24.3 266.38-24.3L266.38-24.3Q268.83-24.3 271.43-23.15L271.43-23.15Q272.38-22.75 272.88-22.75 273.38-22.75 273.73-23.1 274.08-23.45 274.58-24.4L274.58-24.4 275.13-24.4 275.13-16.75 274.53-16.75Q271.98-23.25 266.63-23.25L266.63-23.25Q264.28-23.25 263.13-22.43 261.98-21.6 261.98-20.35L261.98-20.35Q261.98-19.6 262.33-19.18 262.68-18.75 262.88-18.55 263.08-18.35 263.53-18.13 263.98-17.9 264.28-17.78 264.58-17.65 265.2-17.45 265.83-17.25 266.13-17.2L266.13-17.2Q269.53-16.35 271.03-15.73 272.53-15.1 273.88-14.2L273.88-14.2Q276.63-12.3 276.63-8.08 276.63-3.85 274.13-1.68 271.63 0.5 267.28 0.5L267.28 0.5Q264.18 0.5 261.28-0.95L261.28-0.95Q260.68-1.35 260.33-1.35L260.33-1.35Q259.23-1.35 258.18 0.5L258.18 0.5Z" opacity="1" transform="matrix(1,0,0,1,0,0)" fill="#ffffff" class="wordmark-text-0" data-fill-palette-color="quaternary" id="text-0"></path></svg></g></svg></g><g transform="matrix(1,0,0,1,0,43.43062944169358)"><svg viewBox="0 0 194.95439764516743 21.33279365051026" height="21.33279365051026" width="194.95439764516743"><g transform="matrix(1,0,0,1,0,0)"><svg width="194.95439764516743" viewBox="1.9 -31.69 363.84000000000003 39.82" height="21.33279365051026" data-palette-color="#ffffff"><path d="M9.64 0.29L9.64 0.29Q5.62 0.29 3.89-0.98 2.17-2.25 2.05-5.13L2.05-5.13Q1.95-6.93 1.92-9.38 1.88-11.82 1.92-14.28 1.95-16.75 2.05-18.58L2.05-18.58Q2.17-21.53 3.94-22.8 5.71-24.07 9.64-24.07L9.64-24.07Q13.35-24.07 15.01-22.83 16.67-21.58 16.85-18.73L16.85-18.73Q16.89-17.87 16.94-15.75 16.99-13.62 16.8-11.23L16.8-11.23 5.1-11.23Q5.1-9.69 5.13-8.11 5.15-6.52 5.22-4.81L5.22-4.81Q5.25-3.47 6.25-2.95 7.25-2.44 9.55-2.44L9.55-2.44Q11.82-2.44 12.74-2.95 13.67-3.47 13.77-4.81L13.77-4.81Q13.84-6.15 13.77-8.47L13.77-8.47 16.8-8.47Q16.92-7.76 16.91-6.82 16.89-5.88 16.85-5.13L16.85-5.13Q16.67-2.25 15.1-0.98 13.53 0.29 9.64 0.29ZM5.1-13.82L5.1-13.82 13.82-13.82Q13.87-15.48 13.87-16.99 13.87-18.51 13.77-19.07L13.77-19.07Q13.67-20.29 12.72-20.81 11.77-21.34 9.64-21.34L9.64-21.34Q7.28-21.34 6.26-20.81 5.25-20.29 5.22-19.07L5.22-19.07Q5.15-17.65 5.11-16.36 5.08-15.06 5.1-13.82ZM24.61-6.2L22.31 0 19.26 0 24-12.3 19.41-23.75 22.43-23.75 24.29-18.7 26.29-13.77 27.41-13.77 29.54-18.7 31.47-23.75 34.47-23.75 29.76-12.26 34.59 0 31.56 0 29.25-6.2 27.41-11.13 26.36-11.13 24.61-6.2ZM44.99 0.29L44.99 0.29Q41.18 0.29 39.85-0.98 38.52-2.25 38.52-5.13L38.52-5.13 38.52-21.02 36.18-21.02 36.18-23.75 38.59-23.75 38.59-30.49 41.69-30.49 41.69-23.75 47.07-23.75 47.07-21.02 41.67-21.02 41.67-4.79Q41.67-3.44 42.23-2.93 42.79-2.42 45.06-2.42L45.06-2.42Q45.99-2.42 46.49-2.45 46.99-2.49 47.65-2.51L47.65-2.51 47.65 0.1Q47.07 0.2 46.38 0.24 45.7 0.29 44.99 0.29ZM53.41-19.19L53.41 0 50.26 0 50.26-23.75 53.41-23.75 53.41-21.53 54.09-21.53Q54.73-22.75 55.78-23.41 56.83-24.07 58.39-24.07L58.39-24.07Q60.73-24.07 61.87-22.84 63.01-21.61 63.01-18.58L63.01-18.58Q63.01-17.92 62.96-17.02 62.91-16.11 62.81-15.41L62.81-15.41 59.78-15.41Q59.83-15.65 59.84-16.26 59.86-16.87 59.87-17.48 59.88-18.09 59.88-18.31L59.88-18.31Q59.88-20.12 59.27-20.76 58.66-21.41 57.32-21.41L57.32-21.41Q54.46-21.41 53.41-19.19L53.41-19.19ZM72.26 0.27L72.26 0.27Q69.28 0.27 67.85-0.9 66.42-2.08 66.18-4.57L66.18-4.57Q66.15-5.05 66.12-5.54 66.08-6.03 66.13-6.49L66.13-6.49Q66.3-8.67 67.49-10.14 68.69-11.62 72.04-12.84L72.04-12.84Q73.4-13.33 74.92-13.72 76.43-14.11 77.92-14.48L77.92-14.48 77.92-18.99Q77.92-20.19 77.02-20.76 76.11-21.34 73.87-21.34L73.87-21.34Q71.91-21.34 70.9-20.85 69.89-20.36 69.79-19.07L69.79-19.07Q69.74-18.46 69.74-17.32 69.74-16.19 69.79-15.41L69.79-15.41 66.74-15.41Q66.69-16.02 66.64-16.99 66.59-17.97 66.66-18.73L66.66-18.73Q66.79-21.56 68.51-22.81 70.23-24.07 73.99-24.07L73.99-24.07Q77.92-24.07 79.45-22.71 80.97-21.34 81-18.21L81-18.21 81 0 77.92 0 77.92-2.25 77.24-2.25Q76.63-1.03 75.49-0.38 74.36 0.27 72.26 0.27ZM73.04-2.37L73.04-2.37Q76.55-2.37 77.9-4.47L77.9-4.47 77.9-11.87Q76.72-11.62 75.49-11.29 74.26-10.96 72.6-10.4L72.6-10.4Q70.62-9.67 69.96-8.72 69.3-7.76 69.2-6.49L69.2-6.49Q69.23-6.13 69.24-5.7 69.25-5.27 69.3-4.81L69.3-4.81Q69.47-3.64 70.47-3 71.47-2.37 73.04-2.37ZM99.94-15.41L99.94-15.41 96.86-15.41Q96.96-16.26 96.95-17.36 96.94-18.46 96.94-19.07L96.94-19.07Q96.91-20.36 95.92-20.85 94.93-21.34 92.69-21.34L92.69-21.34Q90.39-21.34 89.42-20.85 88.44-20.36 88.42-19.07L88.42-19.07Q88.24-15.23 88.24-11.93 88.24-8.62 88.42-4.81L88.42-4.81Q88.44-3.47 89.42-2.95 90.39-2.44 92.66-2.44L92.66-2.44Q94.91-2.44 95.91-2.95 96.91-3.47 96.94-4.81L96.94-4.81Q96.94-5.47 96.95-6.41 96.96-7.35 96.86-8.47L96.86-8.47 99.94-8.47Q100.06-7.76 100.05-6.82 100.04-5.88 99.99-5.13L99.99-5.13Q99.84-2.25 98.19-0.98 96.55 0.29 92.66 0.29L92.66 0.29Q88.76 0.29 87.06-0.98 85.36-2.25 85.24-5.13L85.24-5.13Q85.14-6.93 85.11-9.38 85.07-11.82 85.11-14.28 85.14-16.75 85.24-18.58L85.24-18.58Q85.36-21.53 87.08-22.8 88.81-24.07 92.69-24.07L92.69-24.07Q96.55-24.07 98.24-22.83 99.94-21.58 99.99-18.73L99.99-18.73Q100.04-17.99 100.05-17.05 100.06-16.11 99.94-15.41ZM111.44 0.29L111.44 0.29Q107.63 0.29 106.3-0.98 104.97-2.25 104.97-5.13L104.97-5.13 104.97-21.02 102.62-21.02 102.62-23.75 105.04-23.75 105.04-30.49 108.14-30.49 108.14-23.75 113.51-23.75 113.51-21.02 108.11-21.02 108.11-4.79Q108.11-3.44 108.68-2.93 109.24-2.42 111.51-2.42L111.51-2.42Q112.44-2.42 112.94-2.45 113.44-2.49 114.1-2.51L114.1-2.51 114.1 0.1Q113.51 0.2 112.83 0.24 112.14 0.29 111.44 0.29ZM130.45-0.44L128.45 4.81 126.62 4.81 128.15 0 126.13 0 126.13-4.44 130.45-4.44 130.45-0.44ZM150.02 0.27L150.02 0.27Q147.05 0.27 145.62-0.9 144.19-2.08 143.94-4.57L143.94-4.57Q143.92-5.05 143.88-5.54 143.85-6.03 143.9-6.49L143.9-6.49Q144.07-8.67 145.26-10.14 146.46-11.62 149.8-12.84L149.8-12.84Q151.17-13.33 152.68-13.72 154.2-14.11 155.69-14.48L155.69-14.48 155.69-18.99Q155.69-20.19 154.78-20.76 153.88-21.34 151.64-21.34L151.64-21.34Q149.68-21.34 148.67-20.85 147.66-20.36 147.56-19.07L147.56-19.07Q147.51-18.46 147.51-17.32 147.51-16.19 147.56-15.41L147.56-15.41 144.51-15.41Q144.46-16.02 144.41-16.99 144.36-17.97 144.43-18.73L144.43-18.73Q144.56-21.56 146.28-22.81 148-24.07 151.76-24.07L151.76-24.07Q155.69-24.07 157.21-22.71 158.74-21.34 158.76-18.21L158.76-18.21 158.76 0 155.69 0 155.69-2.25 155-2.25Q154.39-1.03 153.26-0.38 152.12 0.27 150.02 0.27ZM150.81-2.37L150.81-2.37Q154.32-2.37 155.66-4.47L155.66-4.47 155.66-11.87Q154.49-11.62 153.26-11.29 152.03-10.96 150.37-10.4L150.37-10.4Q148.39-9.67 147.73-8.72 147.07-7.76 146.97-6.49L146.97-6.49Q147-6.13 147.01-5.7 147.02-5.27 147.07-4.81L147.07-4.81Q147.24-3.64 148.24-3 149.24-2.37 150.81-2.37ZM166.4-19.19L166.4 0 163.25 0 163.25-23.75 166.4-23.75 166.4-21.53 167.16-21.53Q167.92-22.75 169.15-23.41 170.38-24.07 172.26-24.07L172.26-24.07Q175.02-24.07 176.36-22.86 177.71-21.66 177.71-18.82L177.71-18.82 177.71 0 174.58 0 174.58-19.09Q174.58-20.31 173.81-20.86 173.04-21.41 171.33-21.41L171.33-21.41Q169.63-21.41 168.33-20.83 167.04-20.24 166.4-19.19L166.4-19.19ZM187.67 0.27L187.67 0.27Q184.69 0.27 183.26-0.9 181.83-2.08 181.59-4.57L181.59-4.57Q181.56-5.05 181.53-5.54 181.49-6.03 181.54-6.49L181.54-6.49Q181.71-8.67 182.9-10.14 184.1-11.62 187.45-12.84L187.45-12.84Q188.81-13.33 190.33-13.72 191.84-14.11 193.33-14.48L193.33-14.48 193.33-18.99Q193.33-20.19 192.43-20.76 191.52-21.34 189.28-21.34L189.28-21.34Q187.32-21.34 186.31-20.85 185.3-20.36 185.2-19.07L185.2-19.07Q185.15-18.46 185.15-17.32 185.15-16.19 185.2-15.41L185.2-15.41 182.15-15.41Q182.1-16.02 182.05-16.99 182-17.97 182.07-18.73L182.07-18.73Q182.2-21.56 183.92-22.81 185.64-24.07 189.4-24.07L189.4-24.07Q193.33-24.07 194.86-22.71 196.38-21.34 196.41-18.21L196.41-18.21 196.41 0 193.33 0 193.33-2.25 192.65-2.25Q192.04-1.03 190.9-0.38 189.76 0.27 187.67 0.27ZM188.45-2.37L188.45-2.37Q191.96-2.37 193.3-4.47L193.3-4.47 193.3-11.87Q192.13-11.62 190.9-11.29 189.67-10.96 188.01-10.4L188.01-10.4Q186.03-9.67 185.37-8.72 184.71-7.76 184.61-6.49L184.61-6.49Q184.64-6.13 184.65-5.7 184.66-5.27 184.71-4.81L184.71-4.81Q184.88-3.64 185.88-3 186.88-2.37 188.45-2.37ZM204.66-31.69L204.66 0 201.48 0 201.48-31.69 204.66-31.69ZM212 8.13L212 8.13Q211.22 8.13 210.13 8.06 209.05 7.98 208.34 7.91L208.34 7.91 208.34 5.2Q209.85 5.32 211.9 5.32L211.9 5.32Q214.08 5.32 214.85 4.8 215.61 4.27 215.88 2.95L215.88 2.95 216.59 0 213.3 0 208.9-23.75 212.12-23.75 213.76-12.43 215.64-2.71 217.13-2.71 219.13-12.43 220.86-23.75 224.11-23.75 218.98 2.71Q218.52 5.59 217.03 6.86 215.54 8.13 212 8.13ZM239.66-2.71L239.66 0 225.57 0 225.57-2.29 236.66-21.07 225.87-21.04 225.87-23.73 240.15-23.75 240.15-21.44 228.97-2.71 239.66-2.71ZM250.5 0.29L250.5 0.29Q246.47 0.29 244.75-0.98 243.03-2.25 242.9-5.13L242.9-5.13Q242.81-6.93 242.77-9.38 242.73-11.82 242.77-14.28 242.81-16.75 242.9-18.58L242.9-18.58Q243.03-21.53 244.8-22.8 246.57-24.07 250.5-24.07L250.5-24.07Q254.21-24.07 255.87-22.83 257.53-21.58 257.7-18.73L257.7-18.73Q257.75-17.87 257.8-15.75 257.85-13.62 257.65-11.23L257.65-11.23 245.96-11.23Q245.96-9.69 245.98-8.11 246-6.52 246.08-4.81L246.08-4.81Q246.1-3.47 247.1-2.95 248.1-2.44 250.4-2.44L250.4-2.44Q252.67-2.44 253.6-2.95 254.53-3.47 254.62-4.81L254.62-4.81Q254.7-6.15 254.62-8.47L254.62-8.47 257.65-8.47Q257.77-7.76 257.76-6.82 257.75-5.88 257.7-5.13L257.7-5.13Q257.53-2.25 255.95-0.98 254.38 0.29 250.5 0.29ZM245.96-13.82L245.96-13.82 254.67-13.82Q254.72-15.48 254.72-16.99 254.72-18.51 254.62-19.07L254.62-19.07Q254.53-20.29 253.57-20.81 252.62-21.34 250.5-21.34L250.5-21.34Q248.13-21.34 247.12-20.81 246.1-20.29 246.08-19.07L246.08-19.07Q246-17.65 245.97-16.36 245.93-15.06 245.96-13.82ZM275.61-0.44L273.61 4.81 271.78 4.81 273.32 0 271.29 0 271.29-4.44 275.61-4.44 275.61-0.44ZM297.02 0.29L297.02 0.29Q292.99 0.29 291.27-0.98 289.55-2.25 289.43-5.13L289.43-5.13Q289.33-6.93 289.29-9.38 289.26-11.82 289.29-14.28 289.33-16.75 289.43-18.58L289.43-18.58Q289.55-21.53 291.32-22.8 293.09-24.07 297.02-24.07L297.02-24.07Q300.73-24.07 302.39-22.83 304.05-21.58 304.22-18.73L304.22-18.73Q304.27-17.87 304.32-15.75 304.37-13.62 304.17-11.23L304.17-11.23 292.48-11.23Q292.48-9.69 292.5-8.11 292.53-6.52 292.6-4.81L292.6-4.81Q292.63-3.47 293.63-2.95 294.63-2.44 296.92-2.44L296.92-2.44Q299.19-2.44 300.12-2.95 301.05-3.47 301.15-4.81L301.15-4.81Q301.22-6.15 301.15-8.47L301.15-8.47 304.17-8.47Q304.3-7.76 304.28-6.82 304.27-5.88 304.22-5.13L304.22-5.13Q304.05-2.25 302.48-0.98 300.9 0.29 297.02 0.29ZM292.48-13.82L292.48-13.82 301.2-13.82Q301.24-15.48 301.24-16.99 301.24-18.51 301.15-19.07L301.15-19.07Q301.05-20.29 300.1-20.81 299.14-21.34 297.02-21.34L297.02-21.34Q294.65-21.34 293.64-20.81 292.63-20.29 292.6-19.07L292.6-19.07Q292.53-17.65 292.49-16.36 292.45-15.06 292.48-13.82ZM311.98-6.2L309.69 0 306.64 0 311.37-12.3 306.78-23.75 309.81-23.75 311.67-18.7 313.67-13.77 314.79-13.77 316.92-18.7 318.84-23.75 321.85-23.75 317.14-12.26 321.97 0 318.94 0 316.62-6.2 314.79-11.13 313.74-11.13 311.98-6.2ZM339.32-15.41L339.32-15.41 336.25-15.41Q336.35-16.26 336.33-17.36 336.32-18.46 336.32-19.07L336.32-19.07Q336.3-20.36 335.31-20.85 334.32-21.34 332.07-21.34L332.07-21.34Q329.78-21.34 328.8-20.85 327.83-20.36 327.8-19.07L327.8-19.07Q327.63-15.23 327.63-11.93 327.63-8.62 327.8-4.81L327.8-4.81Q327.83-3.47 328.8-2.95 329.78-2.44 332.05-2.44L332.05-2.44Q334.3-2.44 335.3-2.95 336.3-3.47 336.32-4.81L336.32-4.81Q336.32-5.47 336.33-6.41 336.35-7.35 336.25-8.47L336.25-8.47 339.32-8.47Q339.45-7.76 339.43-6.82 339.42-5.88 339.37-5.13L339.37-5.13Q339.23-2.25 337.58-0.98 335.93 0.29 332.05 0.29L332.05 0.29Q328.14 0.29 326.45-0.98 324.75-2.25 324.63-5.13L324.63-5.13Q324.53-6.93 324.49-9.38 324.46-11.82 324.49-14.28 324.53-16.75 324.63-18.58L324.63-18.58Q324.75-21.53 326.47-22.8 328.19-24.07 332.07-24.07L332.07-24.07Q335.93-24.07 337.63-22.83 339.32-21.58 339.37-18.73L339.37-18.73Q339.42-17.99 339.43-17.05 339.45-16.11 339.32-15.41ZM350.67 0.29L350.67 0.29Q346.65 0.29 344.93-0.98 343.2-2.25 343.08-5.13L343.08-5.13Q342.98-6.93 342.95-9.38 342.91-11.82 342.95-14.28 342.98-16.75 343.08-18.58L343.08-18.58Q343.2-21.53 344.97-22.8 346.74-24.07 350.67-24.07L350.67-24.07Q354.39-24.07 356.05-22.83 357.71-21.58 357.88-18.73L357.88-18.73Q357.93-17.87 357.97-15.75 358.02-13.62 357.83-11.23L357.83-11.23 346.13-11.23Q346.13-9.69 346.16-8.11 346.18-6.52 346.26-4.81L346.26-4.81Q346.28-3.47 347.28-2.95 348.28-2.44 350.58-2.44L350.58-2.44Q352.85-2.44 353.78-2.95 354.7-3.47 354.8-4.81L354.8-4.81Q354.87-6.15 354.8-8.47L354.8-8.47 357.83-8.47Q357.95-7.76 357.94-6.82 357.93-5.88 357.88-5.13L357.88-5.13Q357.71-2.25 356.13-0.98 354.56 0.29 350.67 0.29ZM346.13-13.82L346.13-13.82 354.85-13.82Q354.9-15.48 354.9-16.99 354.9-18.51 354.8-19.07L354.8-19.07Q354.7-20.29 353.75-20.81 352.8-21.34 350.67-21.34L350.67-21.34Q348.31-21.34 347.29-20.81 346.28-20.29 346.26-19.07L346.26-19.07Q346.18-17.65 346.15-16.36 346.11-15.06 346.13-13.82ZM365.74-31.69L365.74 0 362.56 0 362.56-31.69 365.74-31.69Z" opacity="1" transform="matrix(1,0,0,1,0,0)" fill="#ffffff" class="slogan-text-1" data-fill-palette-color="quaternary" id="text-1"></path></svg></g></svg></g></svg></g></svg></g><g transform="matrix(1,0,0,1,48.691995727701055,0)"><svg viewBox="0 0 115.774449771755 89.50305071342574" height="89.50305071342574" width="115.774449771755"><g><svg xmlns="http://www.w3.org/2000/svg" xmlns:xlink="http://www.w3.org/1999/xlink" version="1.1" x="0" y="0" viewBox="4.7 14.3 89.89999999999999 69.5" enable-background="new 0 0 100 100" xml:space="preserve" height="89.50305071342574" width="115.774449771755" class="icon-icon-0" data-fill-palette-color="quaternary" id="icon-0"><path d="M7.3 81.1V50.2C8.1 50.6 9.1 50.6 9.9 50.1L19.7 43.5C21 45.3 23.2 46.5 25.6 46.5 25.9 46.5 26.2 46.5 26.5 46.4L34.1 57.1C33.5 58.2 33.2 59.4 33.2 60.7 33.2 64.8 36.5 68.1 40.6 68.1S48 64.8 48 60.7C48 60.2 48 59.8 47.9 59.3L60.7 35.8C61.2 35.9 61.7 36 62.2 36 63.2 36 64.2 35.8 65.1 35.4L82.1 57.5C83 58.6 84.5 58.8 85.6 58S86.9 55.6 86.1 54.5L68.8 32C69.3 31 69.6 29.9 69.6 28.7 69.6 24.6 66.3 21.3 62.2 21.3S54.8 24.6 54.8 28.7C54.8 30.4 55.4 32 56.4 33.2L44.8 54.6C43.6 53.8 42.2 53.4 40.7 53.4 39.8 53.4 38.9 53.6 38 53.9L31.2 44.2C32.4 42.9 33.2 41.1 33.2 39.2 33.2 35.1 29.9 31.8 25.8 31.8 22 31.8 18.8 34.7 18.5 38.4L7.3 45.8V14.3H4.7V83.8H94.6V81.1zM56.2 28.7C56.2 27 56.9 25.5 58 24.4S60.6 22.6 62.3 22.6 65.5 23.3 66.6 24.4 68.4 27 68.4 28.7C68.4 29.4 68.3 30.2 68 30.8 67.7 31.6 67.2 32.3 66.6 33 66 33.6 65.2 34.1 64.4 34.4 63.8 34.6 63.1 34.8 62.4 34.8 62.1 34.8 61.8 34.8 61.5 34.7 60.2 34.5 59 33.9 58.1 33 57.8 32.7 57.5 32.3 57.3 32 56.5 31 56.2 29.9 56.2 28.7M35.1 58.5C35.4 57.8 35.9 57.1 36.4 56.5 37.1 55.8 37.9 55.3 38.8 55 39.4 54.8 40 54.7 40.7 54.7 42 54.7 43.2 55.1 44.2 55.8 44.5 56 44.8 56.2 45 56.5 46.1 57.6 46.8 59.1 46.8 60.8 46.8 61.1 46.8 61.5 46.7 61.8 46.4 63 45.8 64.2 45 65L44.8 65.2C43.9 66 42.8 66.6 41.5 66.7 41.2 66.7 40.9 66.8 40.7 66.8 39 66.8 37.5 66.1 36.4 65S34.6 62.4 34.6 60.7C34.6 59.9 34.8 59.2 35.1 58.5M20 37.4C20.3 36.5 20.8 35.6 21.5 34.9 22.6 33.8 24.1 33.1 25.8 33.1S29 33.8 30.1 34.9 31.9 37.5 31.9 39.2C31.9 40.7 31.4 42 30.5 43.1 30.4 43.2 30.3 43.4 30.1 43.5 29 44.6 27.5 45.3 25.8 45.3S22.6 44.6 21.5 43.5C21.3 43.3 21.1 43.1 20.9 42.8 20.1 41.8 19.7 40.5 19.7 39.2 19.7 38.6 19.8 37.9 20 37.4" fill="#ffffff" data-fill-palette-color="quaternary"></path></svg></g></svg></g><g></g></svg></g></svg></g></svg></g></svg></g><defs></defs></svg><rect width="342.85155851775386" height="342.85155851775386" fill="none" stroke="none" visibility="hidden"></rect></g></svg></g></svg>